PathFileType	4	(X/Y/Z)	18_2_rein_85_p0_0-404_filt_butterworth.trc
DataRate	CameraRate	NumFrames	NumMarkers	Units	OrigDataRate	OrigDataStartFrame	OrigNumFrames
60.0	60.0	5	27	m	60.0	353	404
Frame#	Time	RHip			RKnee			RAnkle			RBigToe			RSmallToe			RHeel			LHip			LKnee			LAnkle			LBigToe			LSmallToe			LHeel			Neck			Head			Nose			RShoulder			RElbow			RWrist			RThumb			RIndex			RPinky			LShoulder			LElbow			LWrist			LThumb			LIndex			LPinky			
		X1	Y1	Z1	X2	Y2	Z2	X3	Y3	Z3	X4	Y4	Z4	X5	Y5	Z5	X6	Y6	Z6	X7	Y7	Z7	X8	Y8	Z8	X9	Y9	Z9	X10	Y10	Z10	X11	Y11	Z11	X12	Y12	Z12	X13	Y13	Z13	X14	Y14	Z14	X15	Y15	Z15	X16	Y16	Z16	X17	Y17	Z17	X18	Y18	Z18	X19	Y19	Z19	X20	Y20	Z20	X21	Y21	Z21	X22	Y22	Z22	X23	Y23	Z23	X24	Y24	Z24	X25	Y25	Z25	X26	Y26	Z26	X27	Y27	Z27	
353	5.883333333333334	0.2426770626052674	0.40494590073823195	1.2306991176078235	0.24266522114692002	0.5169108346318091	1.6360362160720912	0.23587211172103287	0.589936412040025	2.015977419111776	0.21785616375717312	0.42340181410346833	2.0514601740129494	0.2714722714198537	0.4419848604491034	2.0514410252372928	0.21734613337049463	0.6851936483572738	2.0885635636059847	0.03666022776538786	0.4212458497262652	1.2262533068619006	0.03712710709314654	0.5103551351515202	1.6501787846536105	0.03816583737324408	0.5714415014370368	2.0258919702343685	0.07858310209186355	0.4600287670012051	2.077491567326703	0.007205179130234839	0.458077396338866	2.06982981064201	0.04923167691200595	0.619870715374137	2.0622599064477947	0.16230696515919388	0.352494382387976	0.7067848396612303	0.17015797196689136	0.244968938745799	0.47807545818466224	0.14771005873790263	0.1835268077200277	0.6064555370948769	0.31097020723647084	0.34151110678046415	0.7962128997452284	0.3689461928115828	0.40548614780054276	1.055842211428402	0.3293435594398861	0.35868903054657514	1.2987196000532573	0.27711772534975476	0.2882678780156095	1.4054175027244498	0.300443933921906	0.30940285635772674	1.4300279394107902	0.33304192292519363	0.3857229295637687	1.443208688972386	0.016172783037362293	0.3596873100262623	0.7801517781145759	-0.06101289238876076	0.3926118336830823	1.024378508692617	-0.03204706064112747	0.3523721382209235	1.2826191800292825	0.01821587553028319	0.3461744264815714	1.3930795509710299	-0.0031758124935442104	0.3434577651771757	1.4081521248099225	-0.0333265168477578	0.3579840663454904	1.4148951021708611
354	5.9	0.24153410563700128	0.4017464322392427	1.2311758964802662	0.24266251056136057	0.5168821086719861	1.6360766037484171	0.235864326234084	0.5899301142612116	2.0159620063463124	0.21776573934233173	0.42279664500336245	2.0500242401071276	0.2715511103484455	0.4417113425478947	2.0513109733652923	0.21734190649823135	0.685224656263265	2.0885462458856474	0.03668932869600961	0.4212254774836664	1.2263785299345633	0.036798971168715125	0.51114070199253	1.6503095826407266	0.038547032874590326	0.5709600728676884	2.024300381287647	0.07925673193718141	0.46059262265936396	2.0771938752634256	0.007265214081040167	0.4581279590712868	2.0697470418422856	0.04913888074286029	0.6193958597579037	2.0616239343600204	0.16228943918909333	0.35247107947446465	0.7067532847004913	0.17021748107621132	0.24476471680139741	0.47807624660092735	0.14769364586465925	0.18348226157975453	0.6064893279835877	0.3109147298360488	0.341478532973069	0.7961751039352122	0.36891946251386226	0.40551361629027727	1.0558509585696783	0.32797631242456093	0.3588482644581548	1.3001601019633966	0.2769928414972243	0.2878290431151308	1.4049046885374357	0.30035750734602573	0.3095582575145182	1.4311809151923618	0.33313768290455203	0.38563979441231944	1.4431884606852319	0.016095519576283704	0.35848702595334714	0.779816756989393	-0.06101978972731432	0.39262997640626396	1.024374865798063	-0.032040491228280676	0.35235520446351126	1.2826280557855654	0.018127638432074333	0.34615455991002475	1.3929431025932533	-0.0032260356918525765	0.34335095353329814	1.408137320232162	-0.034093989558774414	0.3534150555850023	1.4136546214837533
355	5.916666666666667	0.24069015674966923	0.3998530167735488	1.2314328025620074	0.24265242577088256	0.5167905630559424	1.6361812523357477	0.23587217404351546	0.5898893301575978	2.0159144369818107	0.21778577887790446	0.42258195942958116	2.0493229692987263	0.2715533249189181	0.4417690241508858	2.0513522934809805	0.21733372851458005	0.6852131758922348	2.088545448856341	0.03676974664621087	0.42149338913999473	1.2269024563590185	0.036598432460970554	0.5117629658230897	1.649784198257577	0.03883689882132701	0.5706067632538678	2.0230933851693407	0.07929694122329739	0.4608715065380375	2.0772244030838256	0.007376247134428489	0.4578242964136391	2.069016743531707	0.04914884666632025	0.6192922862686818	2.061584996786787	0.1622653093190828	0.35246169969741425	0.7067523261309161	0.1703131845241232	0.24446526365519472	0.47808216645162793	0.14768876906862022	0.18347270567798551	0.6066066124328519	0.310866682906851	0.3414523404714528	0.796135063380189	0.368881203372101	0.4054868677852546	1.0558400086793032	0.3273563092871935	0.3589328566000964	1.3012486535431576	0.27688514011263576	0.28764602798908	1.4045805675673193	0.3001560850117992	0.3097943606785592	1.4327532733568495	0.3331771987123002	0.38555346397962287	1.4431704986837266	0.015918773580921423	0.35460514416708894	0.7794524451634309	-0.06102943097591546	0.3926358886697466	1.0243603742739353	-0.03201983223749787	0.3523561732957948	1.2826376381765676	0.017960767544627856	0.3464074771256186	1.3929934969864155	-0.0032779480387644952	0.34330625263742076	1.408195245961813	-0.034750353500310124	0.3500036956649557	1.4129000844771251
356	5.933333333333334	0.24048218573383942	0.3997078036311079	1.2315431759450761	0.24261402834424894	0.5166212969549088	1.6363952922725136	0.23588203301173571	0.5898525668973993	2.0158628417817397	0.2178168971672235	0.4222410096128226	2.049050038574787	0.2714601706006276	0.4421302256329697	2.0515331611635106	0.2173334310649371	0.6851984754339988	2.0885482640848876	0.03686699967338895	0.4221478564791151	1.227834107001123	0.03653496263020782	0.5120818735252618	1.6493512784154314	0.038948949166727975	0.5704752979080315	2.022614405937706	0.07918508625078682	0.4609967673955413	2.0773491566671893	0.0075975385846960425	0.45738733975010315	2.067616162799223	0.04917818814652517	0.619353635110569	2.061689488075079	0.16224109545926393	0.3524594218626596	0.7067629190290236	0.17030933394262576	0.24447517652929476	0.4780876131549344	0.14768259022554558	0.1834730716502721	0.6066712510201168	0.310831952112575	0.341436882912495	0.7961051674959997	0.3688497945851584	0.4054367829174121	1.0558143282124395	0.3272535831054035	0.3589070510884159	1.3017054948256064	0.2767930063907991	0.28762844759422873	1.4044929312758765	0.29990068438550704	0.30982216438632953	1.4340342613188943	0.3331536116312209	0.3854787926129812	1.4431603373512132	0.0149480870912157	0.34953006620168553	0.7791514455177696	-0.06103218356441489	0.39261305779462746	1.0243462414335558	-0.031981927215088385	0.3523504250742873	1.2826485031182209	0.017793500808681854	0.34675355546191683	1.3931140538090219	-0.00332741579238995	0.3433612860425107	1.40829319950841	-0.03508091272288067	0.3486883239269134	1.412776882224627
357	5.95	0.2409022829192668	0.4000316566442682	1.231524372908328	0.24259112668180283	0.5164016620485267	1.6364409700830456	0.2358849425671583	0.5898546797424549	2.015841392906257	0.21781157646267335	0.42125804971257963	2.04911781085389	0.27143027895962185	0.44213679440657105	2.051520075876969	0.21734449110658868	0.6852042406961475	2.0885275781120134	0.03689516755823848	0.4229149684483955	1.2285636465501861	0.03652632386372231	0.5122729559237937	1.6492011006360905	0.03894794400050493	0.5704928836677917	2.0225914906162563	0.0791799815261198	0.4612105052729314	2.0775191618950286	0.007909509063511715	0.45715169767858216	2.0663991010521867	0.049190742417581965	0.6194524564451803	2.061752245244699	0.16222505982080268	0.35245368618453865	0.7067576233033304	0.16989137977450525	0.24572500771955924	0.47806685583263003	0.14769272311519968	0.18345366287230946	0.6063063113063062	0.3108134169320948	0.34144262793166696	0.7960978556513797	0.3688527201587131	0.40545582306066497	1.0557900460245295	0.32730415578690325	0.3588089715860871	1.301746429954267	0.276708333500953	0.28761281113264836	1.4044781474173709	0.29971841739144184	0.3093969141292467	1.434563016514429	0.3330869157418359	0.38543721610806686	1.44318009880953	0.013120559832444416	0.3455722325950168	0.7790612581207583	-0.06102193930367344	0.39255255856825283	1.0243452871532837	-0.03195377327984298	0.35233400692866057	1.2826512688892195	0.017675850052049004	0.3470100606942268	1.39322264028981	-0.0033664118251972514	0.3434665472381758	1.4083714993672816	-0.03518033684122825	0.3487377279629158	1.4129726727767191
